<?xml version="1.0" standalone="no"?>
<!DOCTYPE svg PUBLIC "-//W3C//DTD SVG 20010904//EN"
 "http://www.w3.org/TR/2001/REC-SVG-20010904/DTD/svg10.dtd">
<svg version="1.0" xmlns="http://www.w3.org/2000/svg"
 width="297.000000pt" height="297.000000pt" viewBox="0 0 297.000000 297.000000"
 preserveAspectRatio="xMidYMid meet">
<metadata>
Created by potrace 1.14, written by Peter Selinger 2001-2017
</metadata>
<g transform="translate(0.000000,297.000000) scale(0.100000,-0.100000)"
fill="#000000" stroke="none">
<path d="M415 2901 c-152 -38 -281 -160 -335 -316 -20 -57 -20 -83 -20 -1100
0 -1017 0 -1043 20 -1100 46 -133 135 -231 266 -292 l59 -28 1075 0 1075 0 57
23 c120 50 222 152 270 270 l23 57 3 1055 c2 1034 2 1055 -18 1115 -43 130
-136 231 -266 292 l-59 28 -1060 2 c-583 0 -1073 -2 -1090 -6z"/>
</g>
</svg>
